<svg width="212" height="100" viewBox="0 0 212 100" fill="none" xmlns="http://www.w3.org/2000/svg">
<rect y="5" width="212" height="90" fill="black"/>
<g filter="url(#filter0_i_24_2)">
<rect x="37" width="10" height="8" fill="#DBDBDB"/>
</g>
<g filter="url(#filter1_i_24_2)">
<rect x="197" width="10" height="8" fill="#DBDBDB"/>
</g>
<g filter="url(#filter2_i_24_2)">
<rect x="5" width="10" height="8" fill="#DBDBDB"/>
</g>
<g filter="url(#filter3_i_24_2)">
<rect x="101" width="10" height="8" fill="#DBDBDB"/>
</g>
<g filter="url(#filter4_i_24_2)">
<rect x="165" width="10" height="8" fill="#DBDBDB"/>
</g>
<g filter="url(#filter5_i_24_2)">
<rect x="133" width="10" height="8" fill="#DBDBDB"/>
</g>
<g filter="url(#filter6_i_24_2)">
<rect x="69" width="10" height="8" fill="#DBDBDB"/>
</g>
<g filter="url(#filter7_i_24_2)">
<rect x="37" y="92" width="10" height="8" fill="#DBDBDB"/>
</g>
<g filter="url(#filter8_i_24_2)">
<rect x="197" y="89" width="10" height="8" fill="#DBDBDB"/>
</g>
<g filter="url(#filter9_i_24_2)">
<rect x="5" y="92" width="10" height="8" fill="#DBDBDB"/>
</g>
<g filter="url(#filter10_i_24_2)">
<rect x="101" y="92" width="10" height="8" fill="#DBDBDB"/>
</g>
<g filter="url(#filter11_i_24_2)">
<rect x="165" y="92" width="10" height="8" fill="#DBDBDB"/>
</g>
<g filter="url(#filter12_i_24_2)">
<rect x="133" y="92" width="10" height="8" fill="#DBDBDB"/>
</g>
<g filter="url(#filter13_i_24_2)">
<rect x="69" y="92" width="10" height="8" fill="#DBDBDB"/>
</g>
<path d="M1 30V30C9.28427 30 16 36.7157 16 45V55C16 63.2843 9.28427 70 1 70V70V30Z" fill="#323232"/>
<rect x="5" y="15" width="10" height="10" fill="#D32E56"/>
<rect x="197" y="73" width="10" height="10" fill="#524FCC"/>
<rect width="34" height="2" transform="matrix(1 0 0 -1 9 84)" fill="#D9D9D9"/>
<rect x="43" y="92" width="2" height="8" transform="rotate(-180 43 92)" fill="#D9D9D9"/>
<rect x="11" y="92" width="2" height="8" transform="rotate(-180 11 92)" fill="#D9D9D9"/>
<path d="M18.5 90.7942L32 83L18.5 75.2058L18.5 90.7942Z" fill="#D9D9D9" stroke="#737373"/>
<circle r="2.5" transform="matrix(1 0 0 -1 34 83)" fill="#D9D9D9" stroke="#737373"/>
<rect width="34" height="2" transform="matrix(1 0 0 -1 73 84)" fill="#D9D9D9"/>
<rect x="107" y="92" width="2" height="8" transform="rotate(-180 107 92)" fill="#D9D9D9"/>
<rect x="75" y="92" width="2" height="8" transform="rotate(-180 75 92)" fill="#D9D9D9"/>
<path d="M82.5 90.7942L96 83L82.5 75.2058L82.5 90.7942Z" fill="#D9D9D9" stroke="#737373"/>
<circle r="2.5" transform="matrix(1 0 0 -1 98 83)" fill="#D9D9D9" stroke="#737373"/>
<rect width="34" height="2" transform="matrix(1 0 0 -1 137 84)" fill="#D9D9D9"/>
<rect x="171" y="92" width="2" height="8" transform="rotate(-180 171 92)" fill="#D9D9D9"/>
<rect x="139" y="92" width="2" height="8" transform="rotate(-180 139 92)" fill="#D9D9D9"/>
<path d="M146.5 90.7942L160 83L146.5 75.2058L146.5 90.7942Z" fill="#D9D9D9" stroke="#737373"/>
<circle r="2.5" transform="matrix(1 0 0 -1 162 83)" fill="#D9D9D9" stroke="#737373"/>
<rect x="75" y="16" width="2" height="8" transform="rotate(-180 75 16)" fill="#D9D9D9"/>
<rect x="43" y="16" width="2" height="8" transform="rotate(-180 43 16)" fill="#D9D9D9"/>
<rect width="34" height="2" transform="matrix(1 0 0 -1 41 18)" fill="#D9D9D9"/>
<path d="M50.5 24.7942L64 17L50.5 9.20577L50.5 24.7942Z" fill="#D9D9D9" stroke="#737373"/>
<circle r="2.5" transform="matrix(1 0 0 -1 66 17)" fill="#D9D9D9" stroke="#737373"/>
<rect x="139" y="16" width="2" height="8" transform="rotate(-180 139 16)" fill="#D9D9D9"/>
<rect x="107" y="16" width="2" height="8" transform="rotate(-180 107 16)" fill="#D9D9D9"/>
<rect width="34" height="2" transform="matrix(1 0 0 -1 105 18)" fill="#D9D9D9"/>
<path d="M114.5 24.7942L128 17L114.5 9.20577L114.5 24.7942Z" fill="#D9D9D9" stroke="#737373"/>
<circle r="2.5" transform="matrix(1 0 0 -1 130 17)" fill="#D9D9D9" stroke="#737373"/>
<rect x="203" y="16" width="2" height="8" transform="rotate(-180 203 16)" fill="#D9D9D9"/>
<rect x="171" y="16" width="2" height="8" transform="rotate(-180 171 16)" fill="#D9D9D9"/>
<rect width="34" height="2" transform="matrix(1 0 0 -1 169 18)" fill="#D9D9D9"/>
<path d="M178.5 24.7942L192 17L178.5 9.20577L178.5 24.7942Z" fill="#D9D9D9" stroke="#737373"/>
<circle r="2.5" transform="matrix(1 0 0 -1 194 17)" fill="#D9D9D9" stroke="#737373"/>
<defs>
<filter id="filter0_i_24_2" x="37" y="0" width="10" height="12" filterUnits="userSpaceOnUse" color-interpolation-filters="sRGB">
<feFlood flood-opacity="0" result="BackgroundImageFix"/>
<feBlend mode="normal" in="SourceGraphic" in2="BackgroundImageFix" result="shape"/>
<feColorMatrix in="SourceAlpha" type="matrix" values="0 0 0 0 0 0 0 0 0 0 0 0 0 0 0 0 0 0 127 0" result="hardAlpha"/>
<feOffset dy="4"/>
<feGaussianBlur stdDeviation="2"/>
<feComposite in2="hardAlpha" operator="arithmetic" k2="-1" k3="1"/>
<feColorMatrix type="matrix" values="0 0 0 0 0 0 0 0 0 0 0 0 0 0 0 0 0 0 0.25 0"/>
<feBlend mode="normal" in2="shape" result="effect1_innerShadow_24_2"/>
</filter>
<filter id="filter1_i_24_2" x="197" y="0" width="10" height="12" filterUnits="userSpaceOnUse" color-interpolation-filters="sRGB">
<feFlood flood-opacity="0" result="BackgroundImageFix"/>
<feBlend mode="normal" in="SourceGraphic" in2="BackgroundImageFix" result="shape"/>
<feColorMatrix in="SourceAlpha" type="matrix" values="0 0 0 0 0 0 0 0 0 0 0 0 0 0 0 0 0 0 127 0" result="hardAlpha"/>
<feOffset dy="4"/>
<feGaussianBlur stdDeviation="2"/>
<feComposite in2="hardAlpha" operator="arithmetic" k2="-1" k3="1"/>
<feColorMatrix type="matrix" values="0 0 0 0 0 0 0 0 0 0 0 0 0 0 0 0 0 0 0.25 0"/>
<feBlend mode="normal" in2="shape" result="effect1_innerShadow_24_2"/>
</filter>
<filter id="filter2_i_24_2" x="5" y="0" width="10" height="12" filterUnits="userSpaceOnUse" color-interpolation-filters="sRGB">
<feFlood flood-opacity="0" result="BackgroundImageFix"/>
<feBlend mode="normal" in="SourceGraphic" in2="BackgroundImageFix" result="shape"/>
<feColorMatrix in="SourceAlpha" type="matrix" values="0 0 0 0 0 0 0 0 0 0 0 0 0 0 0 0 0 0 127 0" result="hardAlpha"/>
<feOffset dy="4"/>
<feGaussianBlur stdDeviation="2"/>
<feComposite in2="hardAlpha" operator="arithmetic" k2="-1" k3="1"/>
<feColorMatrix type="matrix" values="0 0 0 0 0 0 0 0 0 0 0 0 0 0 0 0 0 0 0.25 0"/>
<feBlend mode="normal" in2="shape" result="effect1_innerShadow_24_2"/>
</filter>
<filter id="filter3_i_24_2" x="101" y="0" width="10" height="12" filterUnits="userSpaceOnUse" color-interpolation-filters="sRGB">
<feFlood flood-opacity="0" result="BackgroundImageFix"/>
<feBlend mode="normal" in="SourceGraphic" in2="BackgroundImageFix" result="shape"/>
<feColorMatrix in="SourceAlpha" type="matrix" values="0 0 0 0 0 0 0 0 0 0 0 0 0 0 0 0 0 0 127 0" result="hardAlpha"/>
<feOffset dy="4"/>
<feGaussianBlur stdDeviation="2"/>
<feComposite in2="hardAlpha" operator="arithmetic" k2="-1" k3="1"/>
<feColorMatrix type="matrix" values="0 0 0 0 0 0 0 0 0 0 0 0 0 0 0 0 0 0 0.25 0"/>
<feBlend mode="normal" in2="shape" result="effect1_innerShadow_24_2"/>
</filter>
<filter id="filter4_i_24_2" x="165" y="0" width="10" height="12" filterUnits="userSpaceOnUse" color-interpolation-filters="sRGB">
<feFlood flood-opacity="0" result="BackgroundImageFix"/>
<feBlend mode="normal" in="SourceGraphic" in2="BackgroundImageFix" result="shape"/>
<feColorMatrix in="SourceAlpha" type="matrix" values="0 0 0 0 0 0 0 0 0 0 0 0 0 0 0 0 0 0 127 0" result="hardAlpha"/>
<feOffset dy="4"/>
<feGaussianBlur stdDeviation="2"/>
<feComposite in2="hardAlpha" operator="arithmetic" k2="-1" k3="1"/>
<feColorMatrix type="matrix" values="0 0 0 0 0 0 0 0 0 0 0 0 0 0 0 0 0 0 0.25 0"/>
<feBlend mode="normal" in2="shape" result="effect1_innerShadow_24_2"/>
</filter>
<filter id="filter5_i_24_2" x="133" y="0" width="10" height="12" filterUnits="userSpaceOnUse" color-interpolation-filters="sRGB">
<feFlood flood-opacity="0" result="BackgroundImageFix"/>
<feBlend mode="normal" in="SourceGraphic" in2="BackgroundImageFix" result="shape"/>
<feColorMatrix in="SourceAlpha" type="matrix" values="0 0 0 0 0 0 0 0 0 0 0 0 0 0 0 0 0 0 127 0" result="hardAlpha"/>
<feOffset dy="4"/>
<feGaussianBlur stdDeviation="2"/>
<feComposite in2="hardAlpha" operator="arithmetic" k2="-1" k3="1"/>
<feColorMatrix type="matrix" values="0 0 0 0 0 0 0 0 0 0 0 0 0 0 0 0 0 0 0.25 0"/>
<feBlend mode="normal" in2="shape" result="effect1_innerShadow_24_2"/>
</filter>
<filter id="filter6_i_24_2" x="69" y="0" width="10" height="12" filterUnits="userSpaceOnUse" color-interpolation-filters="sRGB">
<feFlood flood-opacity="0" result="BackgroundImageFix"/>
<feBlend mode="normal" in="SourceGraphic" in2="BackgroundImageFix" result="shape"/>
<feColorMatrix in="SourceAlpha" type="matrix" values="0 0 0 0 0 0 0 0 0 0 0 0 0 0 0 0 0 0 127 0" result="hardAlpha"/>
<feOffset dy="4"/>
<feGaussianBlur stdDeviation="2"/>
<feComposite in2="hardAlpha" operator="arithmetic" k2="-1" k3="1"/>
<feColorMatrix type="matrix" values="0 0 0 0 0 0 0 0 0 0 0 0 0 0 0 0 0 0 0.25 0"/>
<feBlend mode="normal" in2="shape" result="effect1_innerShadow_24_2"/>
</filter>
<filter id="filter7_i_24_2" x="37" y="92" width="10" height="12" filterUnits="userSpaceOnUse" color-interpolation-filters="sRGB">
<feFlood flood-opacity="0" result="BackgroundImageFix"/>
<feBlend mode="normal" in="SourceGraphic" in2="BackgroundImageFix" result="shape"/>
<feColorMatrix in="SourceAlpha" type="matrix" values="0 0 0 0 0 0 0 0 0 0 0 0 0 0 0 0 0 0 127 0" result="hardAlpha"/>
<feOffset dy="4"/>
<feGaussianBlur stdDeviation="2"/>
<feComposite in2="hardAlpha" operator="arithmetic" k2="-1" k3="1"/>
<feColorMatrix type="matrix" values="0 0 0 0 0 0 0 0 0 0 0 0 0 0 0 0 0 0 0.25 0"/>
<feBlend mode="normal" in2="shape" result="effect1_innerShadow_24_2"/>
</filter>
<filter id="filter8_i_24_2" x="197" y="89" width="10" height="12" filterUnits="userSpaceOnUse" color-interpolation-filters="sRGB">
<feFlood flood-opacity="0" result="BackgroundImageFix"/>
<feBlend mode="normal" in="SourceGraphic" in2="BackgroundImageFix" result="shape"/>
<feColorMatrix in="SourceAlpha" type="matrix" values="0 0 0 0 0 0 0 0 0 0 0 0 0 0 0 0 0 0 127 0" result="hardAlpha"/>
<feOffset dy="4"/>
<feGaussianBlur stdDeviation="2"/>
<feComposite in2="hardAlpha" operator="arithmetic" k2="-1" k3="1"/>
<feColorMatrix type="matrix" values="0 0 0 0 0 0 0 0 0 0 0 0 0 0 0 0 0 0 0.25 0"/>
<feBlend mode="normal" in2="shape" result="effect1_innerShadow_24_2"/>
</filter>
<filter id="filter9_i_24_2" x="5" y="92" width="10" height="12" filterUnits="userSpaceOnUse" color-interpolation-filters="sRGB">
<feFlood flood-opacity="0" result="BackgroundImageFix"/>
<feBlend mode="normal" in="SourceGraphic" in2="BackgroundImageFix" result="shape"/>
<feColorMatrix in="SourceAlpha" type="matrix" values="0 0 0 0 0 0 0 0 0 0 0 0 0 0 0 0 0 0 127 0" result="hardAlpha"/>
<feOffset dy="4"/>
<feGaussianBlur stdDeviation="2"/>
<feComposite in2="hardAlpha" operator="arithmetic" k2="-1" k3="1"/>
<feColorMatrix type="matrix" values="0 0 0 0 0 0 0 0 0 0 0 0 0 0 0 0 0 0 0.25 0"/>
<feBlend mode="normal" in2="shape" result="effect1_innerShadow_24_2"/>
</filter>
<filter id="filter10_i_24_2" x="101" y="92" width="10" height="12" filterUnits="userSpaceOnUse" color-interpolation-filters="sRGB">
<feFlood flood-opacity="0" result="BackgroundImageFix"/>
<feBlend mode="normal" in="SourceGraphic" in2="BackgroundImageFix" result="shape"/>
<feColorMatrix in="SourceAlpha" type="matrix" values="0 0 0 0 0 0 0 0 0 0 0 0 0 0 0 0 0 0 127 0" result="hardAlpha"/>
<feOffset dy="4"/>
<feGaussianBlur stdDeviation="2"/>
<feComposite in2="hardAlpha" operator="arithmetic" k2="-1" k3="1"/>
<feColorMatrix type="matrix" values="0 0 0 0 0 0 0 0 0 0 0 0 0 0 0 0 0 0 0.25 0"/>
<feBlend mode="normal" in2="shape" result="effect1_innerShadow_24_2"/>
</filter>
<filter id="filter11_i_24_2" x="165" y="92" width="10" height="12" filterUnits="userSpaceOnUse" color-interpolation-filters="sRGB">
<feFlood flood-opacity="0" result="BackgroundImageFix"/>
<feBlend mode="normal" in="SourceGraphic" in2="BackgroundImageFix" result="shape"/>
<feColorMatrix in="SourceAlpha" type="matrix" values="0 0 0 0 0 0 0 0 0 0 0 0 0 0 0 0 0 0 127 0" result="hardAlpha"/>
<feOffset dy="4"/>
<feGaussianBlur stdDeviation="2"/>
<feComposite in2="hardAlpha" operator="arithmetic" k2="-1" k3="1"/>
<feColorMatrix type="matrix" values="0 0 0 0 0 0 0 0 0 0 0 0 0 0 0 0 0 0 0.25 0"/>
<feBlend mode="normal" in2="shape" result="effect1_innerShadow_24_2"/>
</filter>
<filter id="filter12_i_24_2" x="133" y="92" width="10" height="12" filterUnits="userSpaceOnUse" color-interpolation-filters="sRGB">
<feFlood flood-opacity="0" result="BackgroundImageFix"/>
<feBlend mode="normal" in="SourceGraphic" in2="BackgroundImageFix" result="shape"/>
<feColorMatrix in="SourceAlpha" type="matrix" values="0 0 0 0 0 0 0 0 0 0 0 0 0 0 0 0 0 0 127 0" result="hardAlpha"/>
<feOffset dy="4"/>
<feGaussianBlur stdDeviation="2"/>
<feComposite in2="hardAlpha" operator="arithmetic" k2="-1" k3="1"/>
<feColorMatrix type="matrix" values="0 0 0 0 0 0 0 0 0 0 0 0 0 0 0 0 0 0 0.25 0"/>
<feBlend mode="normal" in2="shape" result="effect1_innerShadow_24_2"/>
</filter>
<filter id="filter13_i_24_2" x="69" y="92" width="10" height="12" filterUnits="userSpaceOnUse" color-interpolation-filters="sRGB">
<feFlood flood-opacity="0" result="BackgroundImageFix"/>
<feBlend mode="normal" in="SourceGraphic" in2="BackgroundImageFix" result="shape"/>
<feColorMatrix in="SourceAlpha" type="matrix" values="0 0 0 0 0 0 0 0 0 0 0 0 0 0 0 0 0 0 127 0" result="hardAlpha"/>
<feOffset dy="4"/>
<feGaussianBlur stdDeviation="2"/>
<feComposite in2="hardAlpha" operator="arithmetic" k2="-1" k3="1"/>
<feColorMatrix type="matrix" values="0 0 0 0 0 0 0 0 0 0 0 0 0 0 0 0 0 0 0.25 0"/>
<feBlend mode="normal" in2="shape" result="effect1_innerShadow_24_2"/>
</filter>
</defs>
</svg>
