<svg width="212" height="100" viewBox="0 0 212 100" fill="none" xmlns="http://www.w3.org/2000/svg">
<rect y="5" width="212" height="90" fill="black"/>
<g filter="url(#filter0_i_29_2)">
<rect x="37" width="10" height="8" fill="#DBDBDB"/>
</g>
<g filter="url(#filter1_i_29_2)">
<rect x="197" width="10" height="8" fill="#DBDBDB"/>
</g>
<g filter="url(#filter2_i_29_2)">
<rect x="5" width="10" height="8" fill="#DBDBDB"/>
</g>
<g filter="url(#filter3_i_29_2)">
<rect x="101" width="10" height="8" fill="#DBDBDB"/>
</g>
<g filter="url(#filter4_i_29_2)">
<rect x="165" width="10" height="8" fill="#DBDBDB"/>
</g>
<g filter="url(#filter5_i_29_2)">
<rect x="133" width="10" height="8" fill="#DBDBDB"/>
</g>
<g filter="url(#filter6_i_29_2)">
<rect x="69" width="10" height="8" fill="#DBDBDB"/>
</g>
<g filter="url(#filter7_i_29_2)">
<rect x="37" y="92" width="10" height="8" fill="#DBDBDB"/>
</g>
<g filter="url(#filter8_i_29_2)">
<rect x="197" y="89" width="10" height="8" fill="#DBDBDB"/>
</g>
<g filter="url(#filter9_i_29_2)">
<rect x="5" y="92" width="10" height="8" fill="#DBDBDB"/>
</g>
<g filter="url(#filter10_i_29_2)">
<rect x="101" y="92" width="10" height="8" fill="#DBDBDB"/>
</g>
<g filter="url(#filter11_i_29_2)">
<rect x="165" y="92" width="10" height="8" fill="#DBDBDB"/>
</g>
<g filter="url(#filter12_i_29_2)">
<rect x="133" y="92" width="10" height="8" fill="#DBDBDB"/>
</g>
<g filter="url(#filter13_i_29_2)">
<rect x="69" y="92" width="10" height="8" fill="#DBDBDB"/>
</g>
<path d="M1 30V30C9.28427 30 16 36.7157 16 45V55C16 63.2843 9.28427 70 1 70V70V30Z" fill="#323232"/>
<rect x="5" y="15" width="10" height="10" fill="#D32E56"/>
<rect x="197" y="73" width="10" height="10" fill="#524FCC"/>
<rect x="75" y="16" width="2" height="8" transform="rotate(-180 75 16)" fill="#D9D9D9"/>
<rect x="107" y="28" width="2" height="20" transform="rotate(-180 107 28)" fill="#D9D9D9"/>
<rect x="43" y="32" width="2" height="24" transform="rotate(-180 43 32)" fill="#D9D9D9"/>
<rect width="21" height="2" transform="matrix(1 0 0 -1 54 18)" fill="#D9D9D9"/>
<rect width="18" height="2" transform="matrix(1 0 0 -1 89 30)" fill="#D9D9D9"/>
<path d="M60.5 20.5H80C84.6944 20.5 88.5 24.3056 88.5 29C88.5 33.6944 84.6944 37.5 80 37.5H60.5V20.5Z" fill="#D9D9D9" stroke="#4F4B4B"/>
<ellipse cx="59.5" cy="29" rx="6.5" ry="9" fill="black"/>
<rect width="26" height="2" transform="matrix(1 0 0 -1 41 34)" fill="#D9D9D9"/>
<rect width="2" height="10" transform="matrix(1 0 0 -1 52 26)" fill="#D9D9D9"/>
<rect width="12" height="2" transform="matrix(1 0 0 -1 54 26)" fill="#D9D9D9"/>
<rect width="2" height="8" transform="matrix(-1 0 0 1 43 84)" fill="#D9D9D9"/>
<rect width="2" height="20" transform="matrix(-1 0 0 1 75 72)" fill="#D9D9D9"/>
<rect width="2" height="24" transform="matrix(-1 0 0 1 11 68)" fill="#D9D9D9"/>
<rect x="22" y="82" width="21" height="2" fill="#D9D9D9"/>
<rect x="57" y="70" width="18" height="2" fill="#D9D9D9"/>
<path d="M28.5 79.5H48C52.6944 79.5 56.5 75.6944 56.5 71C56.5 66.3056 52.6944 62.5 48 62.5H28.5V79.5Z" fill="#D9D9D9" stroke="#4F4B4B"/>
<ellipse rx="6.5" ry="9" transform="matrix(1 0 0 -1 27.5 71)" fill="black"/>
<rect x="9" y="66" width="26" height="2" fill="#D9D9D9"/>
<rect x="20" y="74" width="2" height="10" fill="#D9D9D9"/>
<rect x="22" y="74" width="12" height="2" fill="#D9D9D9"/>
<rect width="2" height="8" transform="matrix(-1 0 0 1 140 84)" fill="#D9D9D9"/>
<rect width="2" height="20" transform="matrix(-1 0 0 1 172 72)" fill="#D9D9D9"/>
<rect width="2" height="24" transform="matrix(-1 0 0 1 108 68)" fill="#D9D9D9"/>
<rect x="119" y="82" width="21" height="2" fill="#D9D9D9"/>
<rect x="154" y="70" width="18" height="2" fill="#D9D9D9"/>
<path d="M125.5 79.5H145C149.694 79.5 153.5 75.6944 153.5 71C153.5 66.3056 149.694 62.5 145 62.5H125.5V79.5Z" fill="#D9D9D9" stroke="#4F4B4B"/>
<ellipse rx="6.5" ry="9" transform="matrix(1 0 0 -1 124.5 71)" fill="black"/>
<rect x="106" y="66" width="26" height="2" fill="#D9D9D9"/>
<rect x="117" y="74" width="2" height="10" fill="#D9D9D9"/>
<rect x="119" y="74" width="12" height="2" fill="#D9D9D9"/>
<rect x="171" y="16" width="2" height="8" transform="rotate(-180 171 16)" fill="#D9D9D9"/>
<rect x="203" y="28" width="2" height="20" transform="rotate(-180 203 28)" fill="#D9D9D9"/>
<rect x="139" y="32" width="2" height="24" transform="rotate(-180 139 32)" fill="#D9D9D9"/>
<rect width="21" height="2" transform="matrix(1 0 0 -1 150 18)" fill="#D9D9D9"/>
<rect width="18" height="2" transform="matrix(1 0 0 -1 185 30)" fill="#D9D9D9"/>
<path d="M156.5 20.5H176C180.694 20.5 184.5 24.3056 184.5 29C184.5 33.6944 180.694 37.5 176 37.5H156.5V20.5Z" fill="#D9D9D9" stroke="#4F4B4B"/>
<ellipse cx="155.5" cy="29" rx="6.5" ry="9" fill="black"/>
<rect width="26" height="2" transform="matrix(1 0 0 -1 137 34)" fill="#D9D9D9"/>
<rect width="2" height="10" transform="matrix(1 0 0 -1 148 26)" fill="#D9D9D9"/>
<rect width="12" height="2" transform="matrix(1 0 0 -1 150 26)" fill="#D9D9D9"/>
<defs>
<filter id="filter0_i_29_2" x="37" y="0" width="10" height="12" filterUnits="userSpaceOnUse" color-interpolation-filters="sRGB">
<feFlood flood-opacity="0" result="BackgroundImageFix"/>
<feBlend mode="normal" in="SourceGraphic" in2="BackgroundImageFix" result="shape"/>
<feColorMatrix in="SourceAlpha" type="matrix" values="0 0 0 0 0 0 0 0 0 0 0 0 0 0 0 0 0 0 127 0" result="hardAlpha"/>
<feOffset dy="4"/>
<feGaussianBlur stdDeviation="2"/>
<feComposite in2="hardAlpha" operator="arithmetic" k2="-1" k3="1"/>
<feColorMatrix type="matrix" values="0 0 0 0 0 0 0 0 0 0 0 0 0 0 0 0 0 0 0.25 0"/>
<feBlend mode="normal" in2="shape" result="effect1_innerShadow_29_2"/>
</filter>
<filter id="filter1_i_29_2" x="197" y="0" width="10" height="12" filterUnits="userSpaceOnUse" color-interpolation-filters="sRGB">
<feFlood flood-opacity="0" result="BackgroundImageFix"/>
<feBlend mode="normal" in="SourceGraphic" in2="BackgroundImageFix" result="shape"/>
<feColorMatrix in="SourceAlpha" type="matrix" values="0 0 0 0 0 0 0 0 0 0 0 0 0 0 0 0 0 0 127 0" result="hardAlpha"/>
<feOffset dy="4"/>
<feGaussianBlur stdDeviation="2"/>
<feComposite in2="hardAlpha" operator="arithmetic" k2="-1" k3="1"/>
<feColorMatrix type="matrix" values="0 0 0 0 0 0 0 0 0 0 0 0 0 0 0 0 0 0 0.25 0"/>
<feBlend mode="normal" in2="shape" result="effect1_innerShadow_29_2"/>
</filter>
<filter id="filter2_i_29_2" x="5" y="0" width="10" height="12" filterUnits="userSpaceOnUse" color-interpolation-filters="sRGB">
<feFlood flood-opacity="0" result="BackgroundImageFix"/>
<feBlend mode="normal" in="SourceGraphic" in2="BackgroundImageFix" result="shape"/>
<feColorMatrix in="SourceAlpha" type="matrix" values="0 0 0 0 0 0 0 0 0 0 0 0 0 0 0 0 0 0 127 0" result="hardAlpha"/>
<feOffset dy="4"/>
<feGaussianBlur stdDeviation="2"/>
<feComposite in2="hardAlpha" operator="arithmetic" k2="-1" k3="1"/>
<feColorMatrix type="matrix" values="0 0 0 0 0 0 0 0 0 0 0 0 0 0 0 0 0 0 0.25 0"/>
<feBlend mode="normal" in2="shape" result="effect1_innerShadow_29_2"/>
</filter>
<filter id="filter3_i_29_2" x="101" y="0" width="10" height="12" filterUnits="userSpaceOnUse" color-interpolation-filters="sRGB">
<feFlood flood-opacity="0" result="BackgroundImageFix"/>
<feBlend mode="normal" in="SourceGraphic" in2="BackgroundImageFix" result="shape"/>
<feColorMatrix in="SourceAlpha" type="matrix" values="0 0 0 0 0 0 0 0 0 0 0 0 0 0 0 0 0 0 127 0" result="hardAlpha"/>
<feOffset dy="4"/>
<feGaussianBlur stdDeviation="2"/>
<feComposite in2="hardAlpha" operator="arithmetic" k2="-1" k3="1"/>
<feColorMatrix type="matrix" values="0 0 0 0 0 0 0 0 0 0 0 0 0 0 0 0 0 0 0.25 0"/>
<feBlend mode="normal" in2="shape" result="effect1_innerShadow_29_2"/>
</filter>
<filter id="filter4_i_29_2" x="165" y="0" width="10" height="12" filterUnits="userSpaceOnUse" color-interpolation-filters="sRGB">
<feFlood flood-opacity="0" result="BackgroundImageFix"/>
<feBlend mode="normal" in="SourceGraphic" in2="BackgroundImageFix" result="shape"/>
<feColorMatrix in="SourceAlpha" type="matrix" values="0 0 0 0 0 0 0 0 0 0 0 0 0 0 0 0 0 0 127 0" result="hardAlpha"/>
<feOffset dy="4"/>
<feGaussianBlur stdDeviation="2"/>
<feComposite in2="hardAlpha" operator="arithmetic" k2="-1" k3="1"/>
<feColorMatrix type="matrix" values="0 0 0 0 0 0 0 0 0 0 0 0 0 0 0 0 0 0 0.25 0"/>
<feBlend mode="normal" in2="shape" result="effect1_innerShadow_29_2"/>
</filter>
<filter id="filter5_i_29_2" x="133" y="0" width="10" height="12" filterUnits="userSpaceOnUse" color-interpolation-filters="sRGB">
<feFlood flood-opacity="0" result="BackgroundImageFix"/>
<feBlend mode="normal" in="SourceGraphic" in2="BackgroundImageFix" result="shape"/>
<feColorMatrix in="SourceAlpha" type="matrix" values="0 0 0 0 0 0 0 0 0 0 0 0 0 0 0 0 0 0 127 0" result="hardAlpha"/>
<feOffset dy="4"/>
<feGaussianBlur stdDeviation="2"/>
<feComposite in2="hardAlpha" operator="arithmetic" k2="-1" k3="1"/>
<feColorMatrix type="matrix" values="0 0 0 0 0 0 0 0 0 0 0 0 0 0 0 0 0 0 0.25 0"/>
<feBlend mode="normal" in2="shape" result="effect1_innerShadow_29_2"/>
</filter>
<filter id="filter6_i_29_2" x="69" y="0" width="10" height="12" filterUnits="userSpaceOnUse" color-interpolation-filters="sRGB">
<feFlood flood-opacity="0" result="BackgroundImageFix"/>
<feBlend mode="normal" in="SourceGraphic" in2="BackgroundImageFix" result="shape"/>
<feColorMatrix in="SourceAlpha" type="matrix" values="0 0 0 0 0 0 0 0 0 0 0 0 0 0 0 0 0 0 127 0" result="hardAlpha"/>
<feOffset dy="4"/>
<feGaussianBlur stdDeviation="2"/>
<feComposite in2="hardAlpha" operator="arithmetic" k2="-1" k3="1"/>
<feColorMatrix type="matrix" values="0 0 0 0 0 0 0 0 0 0 0 0 0 0 0 0 0 0 0.25 0"/>
<feBlend mode="normal" in2="shape" result="effect1_innerShadow_29_2"/>
</filter>
<filter id="filter7_i_29_2" x="37" y="92" width="10" height="12" filterUnits="userSpaceOnUse" color-interpolation-filters="sRGB">
<feFlood flood-opacity="0" result="BackgroundImageFix"/>
<feBlend mode="normal" in="SourceGraphic" in2="BackgroundImageFix" result="shape"/>
<feColorMatrix in="SourceAlpha" type="matrix" values="0 0 0 0 0 0 0 0 0 0 0 0 0 0 0 0 0 0 127 0" result="hardAlpha"/>
<feOffset dy="4"/>
<feGaussianBlur stdDeviation="2"/>
<feComposite in2="hardAlpha" operator="arithmetic" k2="-1" k3="1"/>
<feColorMatrix type="matrix" values="0 0 0 0 0 0 0 0 0 0 0 0 0 0 0 0 0 0 0.25 0"/>
<feBlend mode="normal" in2="shape" result="effect1_innerShadow_29_2"/>
</filter>
<filter id="filter8_i_29_2" x="197" y="89" width="10" height="12" filterUnits="userSpaceOnUse" color-interpolation-filters="sRGB">
<feFlood flood-opacity="0" result="BackgroundImageFix"/>
<feBlend mode="normal" in="SourceGraphic" in2="BackgroundImageFix" result="shape"/>
<feColorMatrix in="SourceAlpha" type="matrix" values="0 0 0 0 0 0 0 0 0 0 0 0 0 0 0 0 0 0 127 0" result="hardAlpha"/>
<feOffset dy="4"/>
<feGaussianBlur stdDeviation="2"/>
<feComposite in2="hardAlpha" operator="arithmetic" k2="-1" k3="1"/>
<feColorMatrix type="matrix" values="0 0 0 0 0 0 0 0 0 0 0 0 0 0 0 0 0 0 0.25 0"/>
<feBlend mode="normal" in2="shape" result="effect1_innerShadow_29_2"/>
</filter>
<filter id="filter9_i_29_2" x="5" y="92" width="10" height="12" filterUnits="userSpaceOnUse" color-interpolation-filters="sRGB">
<feFlood flood-opacity="0" result="BackgroundImageFix"/>
<feBlend mode="normal" in="SourceGraphic" in2="BackgroundImageFix" result="shape"/>
<feColorMatrix in="SourceAlpha" type="matrix" values="0 0 0 0 0 0 0 0 0 0 0 0 0 0 0 0 0 0 127 0" result="hardAlpha"/>
<feOffset dy="4"/>
<feGaussianBlur stdDeviation="2"/>
<feComposite in2="hardAlpha" operator="arithmetic" k2="-1" k3="1"/>
<feColorMatrix type="matrix" values="0 0 0 0 0 0 0 0 0 0 0 0 0 0 0 0 0 0 0.25 0"/>
<feBlend mode="normal" in2="shape" result="effect1_innerShadow_29_2"/>
</filter>
<filter id="filter10_i_29_2" x="101" y="92" width="10" height="12" filterUnits="userSpaceOnUse" color-interpolation-filters="sRGB">
<feFlood flood-opacity="0" result="BackgroundImageFix"/>
<feBlend mode="normal" in="SourceGraphic" in2="BackgroundImageFix" result="shape"/>
<feColorMatrix in="SourceAlpha" type="matrix" values="0 0 0 0 0 0 0 0 0 0 0 0 0 0 0 0 0 0 127 0" result="hardAlpha"/>
<feOffset dy="4"/>
<feGaussianBlur stdDeviation="2"/>
<feComposite in2="hardAlpha" operator="arithmetic" k2="-1" k3="1"/>
<feColorMatrix type="matrix" values="0 0 0 0 0 0 0 0 0 0 0 0 0 0 0 0 0 0 0.25 0"/>
<feBlend mode="normal" in2="shape" result="effect1_innerShadow_29_2"/>
</filter>
<filter id="filter11_i_29_2" x="165" y="92" width="10" height="12" filterUnits="userSpaceOnUse" color-interpolation-filters="sRGB">
<feFlood flood-opacity="0" result="BackgroundImageFix"/>
<feBlend mode="normal" in="SourceGraphic" in2="BackgroundImageFix" result="shape"/>
<feColorMatrix in="SourceAlpha" type="matrix" values="0 0 0 0 0 0 0 0 0 0 0 0 0 0 0 0 0 0 127 0" result="hardAlpha"/>
<feOffset dy="4"/>
<feGaussianBlur stdDeviation="2"/>
<feComposite in2="hardAlpha" operator="arithmetic" k2="-1" k3="1"/>
<feColorMatrix type="matrix" values="0 0 0 0 0 0 0 0 0 0 0 0 0 0 0 0 0 0 0.25 0"/>
<feBlend mode="normal" in2="shape" result="effect1_innerShadow_29_2"/>
</filter>
<filter id="filter12_i_29_2" x="133" y="92" width="10" height="12" filterUnits="userSpaceOnUse" color-interpolation-filters="sRGB">
<feFlood flood-opacity="0" result="BackgroundImageFix"/>
<feBlend mode="normal" in="SourceGraphic" in2="BackgroundImageFix" result="shape"/>
<feColorMatrix in="SourceAlpha" type="matrix" values="0 0 0 0 0 0 0 0 0 0 0 0 0 0 0 0 0 0 127 0" result="hardAlpha"/>
<feOffset dy="4"/>
<feGaussianBlur stdDeviation="2"/>
<feComposite in2="hardAlpha" operator="arithmetic" k2="-1" k3="1"/>
<feColorMatrix type="matrix" values="0 0 0 0 0 0 0 0 0 0 0 0 0 0 0 0 0 0 0.25 0"/>
<feBlend mode="normal" in2="shape" result="effect1_innerShadow_29_2"/>
</filter>
<filter id="filter13_i_29_2" x="69" y="92" width="10" height="12" filterUnits="userSpaceOnUse" color-interpolation-filters="sRGB">
<feFlood flood-opacity="0" result="BackgroundImageFix"/>
<feBlend mode="normal" in="SourceGraphic" in2="BackgroundImageFix" result="shape"/>
<feColorMatrix in="SourceAlpha" type="matrix" values="0 0 0 0 0 0 0 0 0 0 0 0 0 0 0 0 0 0 127 0" result="hardAlpha"/>
<feOffset dy="4"/>
<feGaussianBlur stdDeviation="2"/>
<feComposite in2="hardAlpha" operator="arithmetic" k2="-1" k3="1"/>
<feColorMatrix type="matrix" values="0 0 0 0 0 0 0 0 0 0 0 0 0 0 0 0 0 0 0.25 0"/>
<feBlend mode="normal" in2="shape" result="effect1_innerShadow_29_2"/>
</filter>
</defs>
</svg>
