<svg width="148" height="234" viewBox="0 0 148 234" fill="none" xmlns="http://www.w3.org/2000/svg">
<rect y="5" width="148" height="226" fill="black"/>
<path d="M42.9659 221.085C42.5 221.085 42.071 220.963 41.679 220.719C41.2898 220.474 40.9773 220.104 40.7415 219.607C40.5085 219.109 40.392 218.483 40.392 217.727C40.392 216.937 40.5142 216.295 40.7585 215.801C41.0057 215.307 41.3239 214.945 41.7131 214.714C42.1051 214.484 42.517 214.369 42.9489 214.369C43.2727 214.369 43.5568 214.426 43.8011 214.54C44.0455 214.651 44.25 214.8 44.4148 214.987C44.5795 215.172 44.7045 215.375 44.7898 215.597H44.8239V212.273H47.1761V221H44.8409V219.926H44.7898C44.6989 220.148 44.5682 220.347 44.3977 220.523C44.2301 220.696 44.0256 220.834 43.7841 220.936C43.5455 221.036 43.2727 221.085 42.9659 221.085ZM43.8352 219.278C44.0511 219.278 44.2358 219.216 44.3892 219.091C44.5455 218.963 44.6648 218.784 44.7472 218.554C44.8324 218.321 44.875 218.045 44.875 217.727C44.875 217.403 44.8324 217.126 44.7472 216.896C44.6648 216.663 44.5455 216.486 44.3892 216.364C44.2358 216.239 44.0511 216.176 43.8352 216.176C43.6193 216.176 43.4347 216.239 43.2812 216.364C43.1307 216.486 43.0142 216.663 42.9318 216.896C42.8523 217.126 42.8125 217.403 42.8125 217.727C42.8125 218.051 42.8523 218.33 42.9318 218.562C43.0142 218.793 43.1307 218.97 43.2812 219.095C43.4347 219.217 43.6193 219.278 43.8352 219.278Z" fill="white"/>
<path d="M10.733 221.119C10.0341 221.119 9.43182 220.986 8.92614 220.719C8.4233 220.449 8.03551 220.062 7.76278 219.56C7.4929 219.054 7.35795 218.449 7.35795 217.744C7.35795 217.068 7.49432 216.477 7.76705 215.972C8.03977 215.466 8.42472 215.072 8.92188 214.791C9.41903 214.51 10.0057 214.369 10.6818 214.369C11.1761 214.369 11.6236 214.446 12.0241 214.599C12.4247 214.753 12.767 214.976 13.0511 215.268C13.3352 215.558 13.554 215.911 13.7074 216.325C13.8608 216.74 13.9375 217.207 13.9375 217.727V218.273H8.09091V216.977H11.7727C11.7699 216.79 11.7216 216.625 11.6278 216.483C11.5369 216.338 11.4134 216.226 11.2571 216.146C11.1037 216.064 10.929 216.023 10.733 216.023C10.5426 216.023 10.3679 216.064 10.2088 216.146C10.0497 216.226 9.92188 216.337 9.82528 216.479C9.73153 216.621 9.68182 216.787 9.67614 216.977V218.375C9.67614 218.585 9.72017 218.773 9.80824 218.938C9.89631 219.102 10.0227 219.232 10.1875 219.325C10.3523 219.419 10.5511 219.466 10.7841 219.466C10.946 219.466 11.0938 219.443 11.2273 219.398C11.3636 219.352 11.4801 219.287 11.5767 219.202C11.6733 219.114 11.7443 219.009 11.7898 218.886H13.9375C13.8636 219.341 13.6889 219.736 13.4134 220.071C13.1378 220.403 12.7727 220.662 12.3182 220.847C11.8665 221.028 11.3381 221.119 10.733 221.119Z" fill="white"/>
<path d="M105.75 221.119C105.04 221.119 104.432 220.979 103.926 220.697C103.42 220.413 103.033 220.018 102.763 219.513C102.493 219.004 102.358 218.415 102.358 217.744C102.358 217.074 102.493 216.486 102.763 215.98C103.033 215.472 103.42 215.077 103.926 214.795C104.432 214.511 105.04 214.369 105.75 214.369C106.392 214.369 106.947 214.486 107.416 214.719C107.888 214.949 108.253 215.276 108.511 215.699C108.77 216.119 108.901 216.614 108.903 217.182H106.722C106.69 216.838 106.591 216.577 106.423 216.398C106.259 216.216 106.045 216.125 105.784 216.125C105.58 216.125 105.401 216.185 105.247 216.304C105.094 216.42 104.974 216.598 104.889 216.837C104.804 217.072 104.761 217.369 104.761 217.727C104.761 218.085 104.804 218.384 104.889 218.622C104.974 218.858 105.094 219.036 105.247 219.155C105.401 219.271 105.58 219.33 105.784 219.33C105.957 219.33 106.111 219.29 106.244 219.21C106.378 219.128 106.486 219.009 106.568 218.852C106.653 218.693 106.705 218.5 106.722 218.273H108.903C108.895 218.849 108.763 219.352 108.507 219.781C108.251 220.207 107.889 220.537 107.42 220.77C106.955 221.003 106.398 221.119 105.75 221.119Z" fill="white"/>
<g filter="url(#filter0_i_29_106)">
<rect x="5" y="224" width="10" height="10" fill="#DBDBDB"/>
</g>
<g filter="url(#filter1_i_29_106)">
<rect x="133" y="224" width="10" height="10" fill="#DBDBDB"/>
</g>
<g filter="url(#filter2_i_29_106)">
<rect x="38" y="224" width="10" height="10" fill="#DBDBDB"/>
</g>
<g filter="url(#filter3_i_29_106)">
<rect x="69" y="224" width="10" height="10" fill="#DBDBDB"/>
</g>
<g filter="url(#filter4_i_29_106)">
<rect x="101" y="224" width="10" height="10" fill="#DBDBDB"/>
</g>
<g filter="url(#filter5_i_29_106)">
<rect x="4" width="10" height="10" fill="#DBDBDB"/>
</g>
<g filter="url(#filter6_i_29_106)">
<rect x="132" width="10" height="10" fill="#DBDBDB"/>
</g>
<g filter="url(#filter7_i_29_106)">
<rect x="37" width="10" height="10" fill="#DBDBDB"/>
</g>
<g filter="url(#filter8_i_29_106)">
<rect x="69" width="10" height="10" fill="#DBDBDB"/>
</g>
<g filter="url(#filter9_i_29_106)">
<rect x="100" width="10" height="10" fill="#DBDBDB"/>
</g>
<rect x="103" y="118" width="19" height="79" fill="#4F4B4B"/>
<rect x="103" y="36" width="19" height="79" fill="#4F4B4B"/>
<rect x="20" y="118" width="19" height="79" fill="#4F4B4B"/>
<rect x="20" y="36" width="19" height="79" fill="#4F4B4B"/>
<rect x="41" y="178" width="60" height="19" fill="#4F4B4B"/>
<rect x="44" y="109" width="54" height="16" fill="#4F4B4B"/>
<rect x="41" y="36" width="60" height="19" fill="#4F4B4B"/>
<rect x="131" y="187" width="10" height="10" fill="#4F4B4B"/>
<rect x="71" y="13" width="6" height="6" fill="#D32E56"/>
<rect x="71" y="215" width="6" height="6" fill="#D32E56"/>
<path d="M103.42 20.1023C103.003 20.1023 102.634 20.0341 102.312 19.8977C101.994 19.7585 101.744 19.5483 101.562 19.267C101.381 18.9858 101.29 18.6278 101.29 18.1932C101.29 17.8352 101.351 17.5298 101.473 17.277C101.595 17.0213 101.766 16.8125 101.984 16.6506C102.203 16.4886 102.457 16.3651 102.747 16.2798C103.04 16.1946 103.355 16.1392 103.693 16.1136C104.06 16.0852 104.354 16.0511 104.575 16.0114C104.8 15.9687 104.962 15.9105 105.061 15.8366C105.161 15.7599 105.21 15.6591 105.21 15.5341V15.517C105.21 15.3466 105.145 15.2159 105.014 15.125C104.884 15.0341 104.716 14.9886 104.511 14.9886C104.287 14.9886 104.104 15.0384 103.962 15.1378C103.822 15.2344 103.739 15.3835 103.71 15.5852H101.545C101.574 15.1875 101.7 14.821 101.925 14.4858C102.152 14.1477 102.483 13.8778 102.918 13.6761C103.352 13.4716 103.895 13.3693 104.545 13.3693C105.014 13.3693 105.435 13.4247 105.807 13.5355C106.179 13.6435 106.496 13.7955 106.757 13.9915C107.018 14.1847 107.217 14.4119 107.354 14.6733C107.493 14.9318 107.562 15.2131 107.562 15.517V20H105.364V19.0795H105.312C105.182 19.3239 105.023 19.5213 104.835 19.6719C104.651 19.8224 104.439 19.9318 104.2 20C103.964 20.0682 103.705 20.1023 103.42 20.1023ZM104.188 18.6193C104.366 18.6193 104.534 18.5824 104.69 18.5085C104.849 18.4347 104.979 18.3281 105.078 18.1889C105.178 18.0497 105.227 17.8807 105.227 17.6818V17.1364C105.165 17.1619 105.098 17.1861 105.027 17.2088C104.959 17.2315 104.885 17.2528 104.805 17.2727C104.729 17.2926 104.646 17.3111 104.558 17.3281C104.473 17.3452 104.384 17.3608 104.29 17.375C104.108 17.4034 103.959 17.4503 103.842 17.5156C103.729 17.5781 103.643 17.6562 103.587 17.75C103.533 17.8409 103.506 17.9432 103.506 18.0568C103.506 18.2386 103.57 18.3778 103.697 18.4744C103.825 18.571 103.989 18.6193 104.188 18.6193Z" fill="white"/>
<path d="M133.562 20V11.2727H135.915V14.5966H135.949C136.034 14.375 136.159 14.1719 136.324 13.9872C136.489 13.7997 136.693 13.6506 136.938 13.5398C137.182 13.4261 137.466 13.3693 137.79 13.3693C138.222 13.3693 138.632 13.4844 139.021 13.7145C139.413 13.9446 139.732 14.3068 139.976 14.8011C140.223 15.2955 140.347 15.9375 140.347 16.7273C140.347 17.483 140.229 18.1094 139.993 18.6065C139.76 19.1037 139.447 19.4744 139.055 19.7188C138.666 19.9631 138.239 20.0852 137.773 20.0852C137.466 20.0852 137.192 20.0355 136.95 19.9361C136.712 19.8338 136.507 19.696 136.337 19.5227C136.169 19.3466 136.04 19.1477 135.949 18.9261H135.898V20H133.562ZM135.864 16.7273C135.864 17.0455 135.905 17.321 135.987 17.554C136.072 17.7841 136.192 17.9631 136.345 18.0909C136.501 18.2159 136.688 18.2784 136.903 18.2784C137.119 18.2784 137.303 18.2173 137.453 18.0952C137.607 17.9702 137.723 17.7926 137.803 17.5625C137.885 17.3295 137.926 17.0511 137.926 16.7273C137.926 16.4034 137.885 16.1264 137.803 15.8963C137.723 15.6634 137.607 15.4858 137.453 15.3636C137.303 15.2386 137.119 15.1761 136.903 15.1761C136.688 15.1761 136.501 15.2386 136.345 15.3636C136.192 15.4858 136.072 15.6634 135.987 15.8963C135.905 16.1264 135.864 16.4034 135.864 16.7273Z" fill="white"/>
<path d="M132.966 221.085C132.5 221.085 132.071 220.963 131.679 220.719C131.29 220.474 130.977 220.104 130.741 219.607C130.509 219.109 130.392 218.483 130.392 217.727C130.392 216.937 130.514 216.295 130.759 215.801C131.006 215.307 131.324 214.945 131.713 214.714C132.105 214.484 132.517 214.369 132.949 214.369C133.273 214.369 133.557 214.426 133.801 214.54C134.045 214.651 134.25 214.8 134.415 214.987C134.58 215.172 134.705 215.375 134.79 215.597H134.824V212.273H137.176V221H134.841V219.926H134.79C134.699 220.148 134.568 220.347 134.398 220.523C134.23 220.696 134.026 220.834 133.784 220.936C133.545 221.036 133.273 221.085 132.966 221.085ZM133.835 219.278C134.051 219.278 134.236 219.216 134.389 219.091C134.545 218.963 134.665 218.784 134.747 218.554C134.832 218.321 134.875 218.045 134.875 217.727C134.875 217.403 134.832 217.126 134.747 216.896C134.665 216.663 134.545 216.486 134.389 216.364C134.236 216.239 134.051 216.176 133.835 216.176C133.619 216.176 133.435 216.239 133.281 216.364C133.131 216.486 133.014 216.663 132.932 216.896C132.852 217.126 132.812 217.403 132.812 217.727C132.812 218.051 132.852 218.33 132.932 218.562C133.014 218.793 133.131 218.97 133.281 219.095C133.435 219.217 133.619 219.278 133.835 219.278ZM138.331 223.455V214.455H140.666V215.597H140.717C140.803 215.375 140.928 215.172 141.092 214.987C141.257 214.8 141.462 214.651 141.706 214.54C141.95 214.426 142.234 214.369 142.558 214.369C142.99 214.369 143.401 214.484 143.79 214.714C144.182 214.945 144.5 215.307 144.744 215.801C144.991 216.295 145.115 216.937 145.115 217.727C145.115 218.483 144.997 219.109 144.761 219.607C144.528 220.104 144.216 220.474 143.824 220.719C143.435 220.963 143.007 221.085 142.541 221.085C142.234 221.085 141.96 221.036 141.719 220.936C141.48 220.834 141.276 220.696 141.105 220.523C140.938 220.347 140.808 220.148 140.717 219.926H140.683V223.455H138.331ZM140.632 217.727C140.632 218.045 140.673 218.321 140.756 218.554C140.841 218.784 140.96 218.963 141.114 219.091C141.27 219.216 141.456 219.278 141.672 219.278C141.888 219.278 142.071 219.217 142.222 219.095C142.375 218.97 142.491 218.793 142.571 218.562C142.653 218.33 142.695 218.051 142.695 217.727C142.695 217.403 142.653 217.126 142.571 216.896C142.491 216.663 142.375 216.486 142.222 216.364C142.071 216.239 141.888 216.176 141.672 216.176C141.456 216.176 141.27 216.239 141.114 216.364C140.96 216.486 140.841 216.663 140.756 216.896C140.673 217.126 140.632 217.403 140.632 217.727Z" fill="white"/>
<path d="M8.75 21.5909C8.09375 21.5909 7.53125 21.4972 7.0625 21.3097C6.59659 21.125 6.23438 20.8693 5.97585 20.5426C5.72017 20.2188 5.5767 19.8466 5.54545 19.4261H7.8125C7.83523 19.5653 7.89205 19.6776 7.98295 19.7628C8.07386 19.848 8.19034 19.9091 8.33239 19.946C8.47727 19.9858 8.6392 20.0057 8.81818 20.0057C9.12216 20.0057 9.37358 19.9318 9.57244 19.7841C9.77415 19.6364 9.875 19.3693 9.875 18.983V17.875H9.80682C9.72159 18.0966 9.59091 18.2855 9.41477 18.4418C9.23864 18.5952 9.02699 18.7131 8.77983 18.7955C8.53267 18.875 8.26136 18.9148 7.96591 18.9148C7.5 18.9148 7.07102 18.8068 6.67898 18.5909C6.28977 18.375 5.97727 18.0327 5.74148 17.5639C5.50852 17.0952 5.39205 16.483 5.39205 15.7273C5.39205 14.9375 5.5142 14.2955 5.75852 13.8011C6.00568 13.3068 6.32386 12.9446 6.71307 12.7145C7.10511 12.4844 7.51705 12.3693 7.94886 12.3693C8.27273 12.3693 8.55682 12.4261 8.80114 12.5398C9.04545 12.6506 9.25 12.7997 9.41477 12.9872C9.57955 13.1719 9.70455 13.375 9.78977 13.5966H9.84091V12.4545H12.1932V18.983C12.1932 19.5369 12.0497 20.0071 11.7628 20.3935C11.4787 20.7827 11.0781 21.0795 10.5611 21.2841C10.044 21.4886 9.44034 21.5909 8.75 21.5909ZM8.83523 17.2443C9.05114 17.2443 9.2358 17.1847 9.3892 17.0653C9.54545 16.9432 9.66477 16.7699 9.74716 16.5455C9.83239 16.3182 9.875 16.0455 9.875 15.7273C9.875 15.4034 9.83239 15.1264 9.74716 14.8963C9.66477 14.6634 9.54545 14.4858 9.3892 14.3636C9.2358 14.2386 9.05114 14.1761 8.83523 14.1761C8.61932 14.1761 8.43466 14.2386 8.28125 14.3636C8.13068 14.4858 8.0142 14.6634 7.93182 14.8963C7.85227 15.1264 7.8125 15.4034 7.8125 15.7273C7.8125 16.0511 7.85227 16.3267 7.93182 16.554C8.0142 16.7784 8.13068 16.9503 8.28125 17.0696C8.43466 17.1861 8.61932 17.2443 8.83523 17.2443Z" fill="white"/>
<path d="M43.517 13.4545V15.1591H39.1364V13.4545H43.517ZM39.9716 20V13.267C39.9716 12.7273 40.0682 12.2798 40.2614 11.9247C40.4545 11.5696 40.7273 11.304 41.0795 11.1278C41.4318 10.9517 41.8466 10.8636 42.3239 10.8636C42.6222 10.8636 42.9119 10.8864 43.1932 10.9318C43.4773 10.9773 43.6875 11.017 43.8239 11.0511L43.483 12.7386C43.3977 12.7131 43.2983 12.6932 43.1847 12.679C43.071 12.6619 42.9716 12.6534 42.8864 12.6534C42.6648 12.6534 42.5156 12.7003 42.4389 12.794C42.3622 12.8878 42.3239 13.0114 42.3239 13.1648V20H39.9716Z" fill="white"/>
<defs>
<filter id="filter0_i_29_106" x="5" y="224" width="10" height="14" filterUnits="userSpaceOnUse" color-interpolation-filters="sRGB">
<feFlood flood-opacity="0" result="BackgroundImageFix"/>
<feBlend mode="normal" in="SourceGraphic" in2="BackgroundImageFix" result="shape"/>
<feColorMatrix in="SourceAlpha" type="matrix" values="0 0 0 0 0 0 0 0 0 0 0 0 0 0 0 0 0 0 127 0" result="hardAlpha"/>
<feOffset dy="4"/>
<feGaussianBlur stdDeviation="2"/>
<feComposite in2="hardAlpha" operator="arithmetic" k2="-1" k3="1"/>
<feColorMatrix type="matrix" values="0 0 0 0 0 0 0 0 0 0 0 0 0 0 0 0 0 0 0.25 0"/>
<feBlend mode="normal" in2="shape" result="effect1_innerShadow_29_106"/>
</filter>
<filter id="filter1_i_29_106" x="133" y="224" width="10" height="14" filterUnits="userSpaceOnUse" color-interpolation-filters="sRGB">
<feFlood flood-opacity="0" result="BackgroundImageFix"/>
<feBlend mode="normal" in="SourceGraphic" in2="BackgroundImageFix" result="shape"/>
<feColorMatrix in="SourceAlpha" type="matrix" values="0 0 0 0 0 0 0 0 0 0 0 0 0 0 0 0 0 0 127 0" result="hardAlpha"/>
<feOffset dy="4"/>
<feGaussianBlur stdDeviation="2"/>
<feComposite in2="hardAlpha" operator="arithmetic" k2="-1" k3="1"/>
<feColorMatrix type="matrix" values="0 0 0 0 0 0 0 0 0 0 0 0 0 0 0 0 0 0 0.25 0"/>
<feBlend mode="normal" in2="shape" result="effect1_innerShadow_29_106"/>
</filter>
<filter id="filter2_i_29_106" x="38" y="224" width="10" height="14" filterUnits="userSpaceOnUse" color-interpolation-filters="sRGB">
<feFlood flood-opacity="0" result="BackgroundImageFix"/>
<feBlend mode="normal" in="SourceGraphic" in2="BackgroundImageFix" result="shape"/>
<feColorMatrix in="SourceAlpha" type="matrix" values="0 0 0 0 0 0 0 0 0 0 0 0 0 0 0 0 0 0 127 0" result="hardAlpha"/>
<feOffset dy="4"/>
<feGaussianBlur stdDeviation="2"/>
<feComposite in2="hardAlpha" operator="arithmetic" k2="-1" k3="1"/>
<feColorMatrix type="matrix" values="0 0 0 0 0 0 0 0 0 0 0 0 0 0 0 0 0 0 0.25 0"/>
<feBlend mode="normal" in2="shape" result="effect1_innerShadow_29_106"/>
</filter>
<filter id="filter3_i_29_106" x="69" y="224" width="10" height="14" filterUnits="userSpaceOnUse" color-interpolation-filters="sRGB">
<feFlood flood-opacity="0" result="BackgroundImageFix"/>
<feBlend mode="normal" in="SourceGraphic" in2="BackgroundImageFix" result="shape"/>
<feColorMatrix in="SourceAlpha" type="matrix" values="0 0 0 0 0 0 0 0 0 0 0 0 0 0 0 0 0 0 127 0" result="hardAlpha"/>
<feOffset dy="4"/>
<feGaussianBlur stdDeviation="2"/>
<feComposite in2="hardAlpha" operator="arithmetic" k2="-1" k3="1"/>
<feColorMatrix type="matrix" values="0 0 0 0 0 0 0 0 0 0 0 0 0 0 0 0 0 0 0.25 0"/>
<feBlend mode="normal" in2="shape" result="effect1_innerShadow_29_106"/>
</filter>
<filter id="filter4_i_29_106" x="101" y="224" width="10" height="14" filterUnits="userSpaceOnUse" color-interpolation-filters="sRGB">
<feFlood flood-opacity="0" result="BackgroundImageFix"/>
<feBlend mode="normal" in="SourceGraphic" in2="BackgroundImageFix" result="shape"/>
<feColorMatrix in="SourceAlpha" type="matrix" values="0 0 0 0 0 0 0 0 0 0 0 0 0 0 0 0 0 0 127 0" result="hardAlpha"/>
<feOffset dy="4"/>
<feGaussianBlur stdDeviation="2"/>
<feComposite in2="hardAlpha" operator="arithmetic" k2="-1" k3="1"/>
<feColorMatrix type="matrix" values="0 0 0 0 0 0 0 0 0 0 0 0 0 0 0 0 0 0 0.25 0"/>
<feBlend mode="normal" in2="shape" result="effect1_innerShadow_29_106"/>
</filter>
<filter id="filter5_i_29_106" x="4" y="0" width="10" height="14" filterUnits="userSpaceOnUse" color-interpolation-filters="sRGB">
<feFlood flood-opacity="0" result="BackgroundImageFix"/>
<feBlend mode="normal" in="SourceGraphic" in2="BackgroundImageFix" result="shape"/>
<feColorMatrix in="SourceAlpha" type="matrix" values="0 0 0 0 0 0 0 0 0 0 0 0 0 0 0 0 0 0 127 0" result="hardAlpha"/>
<feOffset dy="4"/>
<feGaussianBlur stdDeviation="2"/>
<feComposite in2="hardAlpha" operator="arithmetic" k2="-1" k3="1"/>
<feColorMatrix type="matrix" values="0 0 0 0 0 0 0 0 0 0 0 0 0 0 0 0 0 0 0.25 0"/>
<feBlend mode="normal" in2="shape" result="effect1_innerShadow_29_106"/>
</filter>
<filter id="filter6_i_29_106" x="132" y="0" width="10" height="14" filterUnits="userSpaceOnUse" color-interpolation-filters="sRGB">
<feFlood flood-opacity="0" result="BackgroundImageFix"/>
<feBlend mode="normal" in="SourceGraphic" in2="BackgroundImageFix" result="shape"/>
<feColorMatrix in="SourceAlpha" type="matrix" values="0 0 0 0 0 0 0 0 0 0 0 0 0 0 0 0 0 0 127 0" result="hardAlpha"/>
<feOffset dy="4"/>
<feGaussianBlur stdDeviation="2"/>
<feComposite in2="hardAlpha" operator="arithmetic" k2="-1" k3="1"/>
<feColorMatrix type="matrix" values="0 0 0 0 0 0 0 0 0 0 0 0 0 0 0 0 0 0 0.25 0"/>
<feBlend mode="normal" in2="shape" result="effect1_innerShadow_29_106"/>
</filter>
<filter id="filter7_i_29_106" x="37" y="0" width="10" height="14" filterUnits="userSpaceOnUse" color-interpolation-filters="sRGB">
<feFlood flood-opacity="0" result="BackgroundImageFix"/>
<feBlend mode="normal" in="SourceGraphic" in2="BackgroundImageFix" result="shape"/>
<feColorMatrix in="SourceAlpha" type="matrix" values="0 0 0 0 0 0 0 0 0 0 0 0 0 0 0 0 0 0 127 0" result="hardAlpha"/>
<feOffset dy="4"/>
<feGaussianBlur stdDeviation="2"/>
<feComposite in2="hardAlpha" operator="arithmetic" k2="-1" k3="1"/>
<feColorMatrix type="matrix" values="0 0 0 0 0 0 0 0 0 0 0 0 0 0 0 0 0 0 0.25 0"/>
<feBlend mode="normal" in2="shape" result="effect1_innerShadow_29_106"/>
</filter>
<filter id="filter8_i_29_106" x="69" y="0" width="10" height="14" filterUnits="userSpaceOnUse" color-interpolation-filters="sRGB">
<feFlood flood-opacity="0" result="BackgroundImageFix"/>
<feBlend mode="normal" in="SourceGraphic" in2="BackgroundImageFix" result="shape"/>
<feColorMatrix in="SourceAlpha" type="matrix" values="0 0 0 0 0 0 0 0 0 0 0 0 0 0 0 0 0 0 127 0" result="hardAlpha"/>
<feOffset dy="4"/>
<feGaussianBlur stdDeviation="2"/>
<feComposite in2="hardAlpha" operator="arithmetic" k2="-1" k3="1"/>
<feColorMatrix type="matrix" values="0 0 0 0 0 0 0 0 0 0 0 0 0 0 0 0 0 0 0.25 0"/>
<feBlend mode="normal" in2="shape" result="effect1_innerShadow_29_106"/>
</filter>
<filter id="filter9_i_29_106" x="100" y="0" width="10" height="14" filterUnits="userSpaceOnUse" color-interpolation-filters="sRGB">
<feFlood flood-opacity="0" result="BackgroundImageFix"/>
<feBlend mode="normal" in="SourceGraphic" in2="BackgroundImageFix" result="shape"/>
<feColorMatrix in="SourceAlpha" type="matrix" values="0 0 0 0 0 0 0 0 0 0 0 0 0 0 0 0 0 0 127 0" result="hardAlpha"/>
<feOffset dy="4"/>
<feGaussianBlur stdDeviation="2"/>
<feComposite in2="hardAlpha" operator="arithmetic" k2="-1" k3="1"/>
<feColorMatrix type="matrix" values="0 0 0 0 0 0 0 0 0 0 0 0 0 0 0 0 0 0 0.25 0"/>
<feBlend mode="normal" in2="shape" result="effect1_innerShadow_29_106"/>
</filter>
</defs>
</svg>
